<svg width="44" height="44" viewBox="0 0 44 44" fill="none" xmlns="http://www.w3.org/2000/svg">
<rect width="44" height="44" rx="8" fill="#6E73F0"/>
<path fill-rule="evenodd" clip-rule="evenodd" d="M8 2H36C39.3137 2 42 4.68629 42 8V32H36C33.7909 32 32 33.7909 32 36V42H8C4.68629 42 2 39.3137 2 36V8C2 4.68629 4.68629 2 8 2ZM32 44H8C3.58172 44 0 40.4183 0 36V8C0 3.58172 3.58172 0 8 0H36C40.4183 0 44 3.58172 44 8V32V36C44 40.4183 40.4183 44 36 44H32Z" fill="white" fill-opacity="0.28"/>
<path d="M15.08 27V19.16H12.28V17.2H19.98V19.16H17.18V27H15.08ZM26.4244 23.29V21.61H30.3444V25.32C30.027 25.684 29.663 26.0013 29.2524 26.272C28.3377 26.8973 27.2784 27.21 26.0744 27.21C24.5717 27.21 23.307 26.7107 22.2804 25.712C21.263 24.7133 20.7544 23.5093 20.7544 22.1C20.7544 20.6907 21.263 19.4867 22.2804 18.488C23.307 17.4893 24.5717 16.99 26.0744 16.99C27.2224 16.99 28.2537 17.3167 29.1684 17.97C29.5604 18.25 29.9057 18.5767 30.2044 18.95L28.8044 20.35C28.6177 20.1073 28.3797 19.874 28.0904 19.65C27.4744 19.1833 26.8024 18.95 26.0744 18.95C25.197 18.95 24.4504 19.258 23.8344 19.874C23.2277 20.4807 22.9244 21.2227 22.9244 22.1C22.9244 22.9773 23.2277 23.724 23.8344 24.34C24.4504 24.9467 25.197 25.25 26.0744 25.25C26.6904 25.25 27.227 25.124 27.6844 24.872C27.927 24.7413 28.1137 24.6107 28.2444 24.48V23.29H26.4244Z" fill="white"/>
</svg>
