<svg width="10" height="11" viewBox="0 0 10 11" fill="none" xmlns="http://www.w3.org/2000/svg">
<path d="M9.34156 10.0013H0.670941C0.296762 10.0013 0 9.70452 0 9.33034V9.21421C0 9.03358 0.0645135 8.86584 0.193541 8.73681L1.09673 7.85943V5.00793C1.09673 3.27897 2.18056 1.82097 3.8063 1.30486C3.8192 1.30486 3.8192 1.29195 3.8192 1.27905V1.17583C3.8192 0.788749 3.99984 0.414571 4.32241 0.208128C5.19979 -0.359591 6.16749 0.324252 6.16749 1.17583V1.27905C7.80613 1.79516 8.90286 3.25317 8.90286 4.99503V7.85943L9.80605 8.74972C9.93508 8.87874 9.99959 9.04648 9.99959 9.22712V9.34324C10.0125 9.70452 9.71574 10.0013 9.34156 10.0013Z" fill="#9FA4AF"/>
</svg>
