<svg width="18" height="17" viewBox="0 0 18 17" fill="none" xmlns="http://www.w3.org/2000/svg">
<path fill-rule="evenodd" clip-rule="evenodd" d="M1.07824 9.11942H3.791L5.18762 6.08247C5.31133 5.81269 5.60646 5.63532 5.8822 5.64873C6.17882 5.65544 6.44413 5.83877 6.55517 6.11377L7.88994 9.41082L8.72687 7.92178C8.85729 7.69075 9.10025 7.54617 9.36556 7.5417C9.64727 7.54393 9.85892 7.66467 9.99829 7.87632L10.8829 3.71478C10.9574 3.3645 11.2518 3.11037 11.6312 3.12527C11.9896 3.13422 12.2907 3.39729 12.3474 3.75204L13.2059 9.11942H17.0336C17.3816 8.49638 17.6477 7.83459 17.8131 7.14224C18.0658 6.08471 17.9964 5.40727 17.9666 5.21573C17.6924 2.2943 15.581 0.17627 12.9383 0.17627C11.415 0.17627 9.9655 0.889486 9.0138 2.09532C8.07849 0.872345 6.6923 0.17627 5.17346 0.17627C2.53076 0.17627 0.419429 2.29356 0.144427 5.21573C0.115361 5.40727 0.0460521 6.08471 0.297951 7.14224C0.464144 7.83459 0.730203 8.49638 1.07824 9.11942Z" fill="#DCDFEB"/>
<path fill-rule="evenodd" clip-rule="evenodd" d="M12.5704 10.6099C12.2045 10.6099 11.8922 10.3439 11.8348 9.98242L11.5084 7.94189L11.0642 10.0316C11.0009 10.3305 10.7601 10.5607 10.4591 10.6114C10.155 10.6628 9.85391 10.5235 9.69741 10.2619L9.3993 9.76779L8.43046 11.4916C8.29855 11.7278 8.04889 11.8717 7.78059 11.8717C7.76494 11.8717 7.74929 11.8717 7.73364 11.8702C7.44746 11.8523 7.1978 11.6719 7.08973 11.4066L5.82055 8.27205L4.94561 10.1762C4.82339 10.44 4.55957 10.6099 4.26817 10.6099H2.15088C2.3521 10.832 2.56226 11.0489 2.79031 11.2531L9.05574 16.8239L15.3234 11.2516C15.5507 11.0481 15.7601 10.832 15.9613 10.6099H12.5704Z" fill="#DCDFEB"/>
</svg>
