<svg width="184" height="48" viewBox="0 0 184 48" fill="none" xmlns="http://www.w3.org/2000/svg">
<path d="M157.367 15.5972H163.073V33.2726H157.367V15.5972Z" fill="#5ECBA1"/>
<path d="M178.168 15.5972H183.494V34.1564L171.955 25.2682V33.2726H166.629V14.7134L178.168 23.6016V15.5972Z" fill="#5ECBA1"/>
<path d="M66.2502 24.1311C66.2502 25.0474 66.4518 25.8195 66.855 26.4474C67.275 27.0582 67.821 27.5164 68.493 27.8218C69.1818 28.1273 69.9378 28.28 70.761 28.28C71.601 28.28 72.3234 28.1697 72.9282 27.9491C73.533 27.7285 74.0622 27.457 74.5158 27.1346C74.9862 26.7952 75.4062 26.4474 75.7758 26.091V31.8434C75.087 32.3186 74.331 32.7173 73.5078 33.0398C72.7014 33.3791 71.6514 33.5488 70.3578 33.5488C68.3082 33.5488 66.519 33.1585 64.9902 32.378C63.4614 31.5974 62.2686 30.5029 61.4118 29.0945C60.5719 27.6861 60.1519 26.0316 60.1519 24.1311C60.1519 22.2306 60.5719 20.5761 61.4118 19.1677C62.2686 17.7593 63.4614 16.6648 64.9902 15.8842C66.519 15.1037 68.3082 14.7134 70.3578 14.7134C71.6514 14.7134 72.7014 14.8746 73.5078 15.197C74.331 15.5194 75.087 15.9267 75.7758 16.4187V22.1712C75.4062 21.8148 74.9862 21.467 74.5158 21.1276C74.0622 20.7882 73.533 20.5167 72.9282 20.3131C72.3234 20.0925 71.601 19.9822 70.761 19.9822C69.9378 19.9822 69.1818 20.1349 68.493 20.4404C67.821 20.7458 67.275 21.2125 66.855 21.8403C66.4518 22.4512 66.2502 23.2148 66.2502 24.1311Z" fill="#6E73F0"/>
<path d="M79.0508 15.2224H84.5947V21.3312H90.8947V15.2224H96.4387V33.0398H90.8947V26.2946H84.5947V33.0398H79.0508V15.2224Z" fill="#6E73F0"/>
<path d="M99.9686 15.2224H112.695V19.6768H105.261V21.713H112.191V26.0401H105.261V28.5854H112.695V33.0398H99.9686V15.2224Z" fill="#6E73F0"/>
<path d="M121.055 24.1311C121.055 25.0474 121.257 25.8195 121.66 26.4474C122.08 27.0582 122.626 27.5164 123.298 27.8218C123.987 28.1273 124.743 28.28 125.566 28.28C126.406 28.28 127.128 28.1697 127.733 27.9491C128.338 27.7285 128.867 27.457 129.321 27.1346C129.791 26.7952 130.211 26.4474 130.581 26.091V31.8434C129.892 32.3186 129.136 32.7173 128.313 33.0398C127.506 33.3791 126.456 33.5488 125.163 33.5488C123.113 33.5488 121.324 33.1585 119.795 32.378C118.266 31.5974 117.073 30.5029 116.217 29.0945C115.377 27.6861 114.957 26.0316 114.957 24.1311C114.957 22.2306 115.377 20.5761 116.217 19.1677C117.073 17.7593 118.266 16.6648 119.795 15.8842C121.324 15.1037 123.113 14.7134 125.163 14.7134C126.456 14.7134 127.506 14.8746 128.313 15.197C129.136 15.5194 129.892 15.9267 130.581 16.4187V22.1712C130.211 21.8148 129.791 21.467 129.321 21.1276C128.867 20.7882 128.338 20.5167 127.733 20.3131C127.128 20.0925 126.406 19.9822 125.566 19.9822C124.743 19.9822 123.987 20.1349 123.298 20.4404C122.626 20.7458 122.08 21.2125 121.66 21.8403C121.257 22.4512 121.055 23.2148 121.055 24.1311Z" fill="#6E73F0"/>
<path d="M133.856 15.2224H139.652V21.8149L145.07 15.2224H151.521L144.641 23.5711L151.899 33.0398H145.196L139.652 25.811V33.0398H133.856V15.2224Z" fill="#6E73F0"/>
<path fill-rule="evenodd" clip-rule="evenodd" d="M40.456 8.23674L19.5348 29.1579L23.734 33.3571L41.7481 15.3431L48.6076 20.5242L43.6245 28.2163L45.6762 37.1489L36.9145 39.8384L32.7444 48L24.3038 44.4283L15.8632 48L11.6931 39.8384L2.9314 37.1489L4.9831 28.2163L0 20.5242L7.31347 15.0002L8.44062 5.90458L17.5938 6.37399L24.3038 0.130859L31.0138 6.37399L40.167 5.90458L40.456 8.23674Z" fill="#6E73F0"/>
<rect width="5.93857" height="17.0656" transform="matrix(-0.707107 0.707107 0.707107 0.707107 15.6948 17.1909)" fill="#5ECBA1"/>
<rect width="5.93857" height="5.9434" transform="matrix(-0.707107 -0.707107 -0.707107 0.707107 27.8013 29.2896)" fill="#FEC132"/>
</svg>
