<svg width="16" height="13" viewBox="0 0 16 13" fill="none" xmlns="http://www.w3.org/2000/svg">
<path d="M0.530188 3.52C0.530188 2.95467 0.668854 2.44267 0.946188 1.984C1.23419 1.51467 1.61819 1.14133 2.09819 0.863999C2.58885 0.586666 3.13285 0.447999 3.73019 0.447999C4.32752 0.447999 4.86619 0.586666 5.34619 0.863999C5.82619 1.14133 6.20485 1.51467 6.48219 1.984C6.75952 2.44267 6.89819 2.95467 6.89819 3.52C6.89819 4.08533 6.75952 4.60267 6.48219 5.072C6.20485 5.54133 5.82619 5.91467 5.34619 6.192C4.86619 6.46933 4.32752 6.608 3.73019 6.608C3.13285 6.608 2.58885 6.46933 2.09819 6.192C1.61819 5.91467 1.23419 5.54133 0.946188 5.072C0.668854 4.60267 0.530188 4.08533 0.530188 3.52ZM11.0582 0.799999H13.9702L4.94619 12H2.05019L11.0582 0.799999ZM2.80219 3.52C2.80219 3.776 2.88752 3.99467 3.05819 4.176C3.23952 4.35733 3.46352 4.448 3.73019 4.448C3.99685 4.448 4.21552 4.35733 4.38619 4.176C4.55685 3.99467 4.64219 3.776 4.64219 3.52C4.64219 3.264 4.55685 3.04533 4.38619 2.864C4.21552 2.68267 3.99685 2.592 3.73019 2.592C3.46352 2.592 3.23952 2.68267 3.05819 2.864C2.88752 3.04533 2.80219 3.264 2.80219 3.52ZM9.10619 9.264C9.10619 8.69867 9.24485 8.18133 9.52219 7.712C9.81019 7.24267 10.1942 6.86933 10.6742 6.592C11.1542 6.31467 11.6929 6.176 12.2902 6.176C12.8875 6.176 13.4262 6.31467 13.9062 6.592C14.3862 6.86933 14.7649 7.24267 15.0422 7.712C15.3302 8.18133 15.4742 8.69867 15.4742 9.264C15.4742 9.82933 15.3302 10.3467 15.0422 10.816C14.7649 11.2853 14.3862 11.6587 13.9062 11.936C13.4262 12.2133 12.8875 12.352 12.2902 12.352C11.6929 12.352 11.1542 12.2133 10.6742 11.936C10.1942 11.6587 9.81019 11.2853 9.52219 10.816C9.24485 10.3467 9.10619 9.82933 9.10619 9.264ZM11.3782 9.264C11.3782 9.52 11.4635 9.73867 11.6342 9.92C11.8049 10.0907 12.0235 10.176 12.2902 10.176C12.5569 10.176 12.7755 10.0907 12.9462 9.92C13.1169 9.73867 13.2022 9.52 13.2022 9.264C13.2022 9.008 13.1169 8.79467 12.9462 8.624C12.7755 8.44267 12.5569 8.352 12.2902 8.352C12.0235 8.352 11.8049 8.44267 11.6342 8.624C11.4635 8.79467 11.3782 9.008 11.3782 9.264Z" fill="#DCDFEB"/>
</svg>
