<svg width="24" height="24" viewBox="0 0 24 24" fill="none" xmlns="http://www.w3.org/2000/svg">
<circle cx="12" cy="12" r="11.5" fill="#FF6B69" stroke="white"/>
<path d="M11.7468 16.2702C11.4062 16.167 11.1895 15.8367 11.1895 15.4857V15.2174C11.1895 15.2174 11.1895 15.207 11.1998 15.207H12.8307V15.4961C12.8204 16.0328 12.3042 16.4457 11.7468 16.2702Z" fill="white"/>
<path d="M15.4732 15.001H8.53675C8.23741 15.001 8 14.7636 8 14.4643V14.3714C8 14.2269 8.05161 14.0927 8.15483 13.9895L8.87738 13.2875V11.0063C8.87738 9.62318 9.74445 8.45677 11.045 8.04389C11.0554 8.04389 11.0554 8.03356 11.0554 8.02324V7.94066C11.0554 7.631 11.1999 7.33166 11.4579 7.1665C12.1598 6.71233 12.934 7.2594 12.934 7.94066V8.02324C14.2449 8.43613 15.1223 9.60253 15.1223 10.996V13.2875L15.8448 13.9998C15.9481 14.103 15.9997 14.2372 15.9997 14.3817V14.4746C16.01 14.7636 15.7726 15.001 15.4732 15.001Z" fill="white"/>
</svg>
