<svg width="13" height="14" viewBox="0 0 13 14" fill="none" xmlns="http://www.w3.org/2000/svg">
<path d="M5.6315 13.9383C5.11936 13.7831 4.79346 13.2865 4.79346 12.7589V12.3554C4.79346 12.3554 4.79346 12.3398 4.80898 12.3398H7.26103V12.7744C7.24551 13.5814 6.46954 14.2022 5.6315 13.9383Z" fill="#6E73F0"/>
<path d="M11.236 12.0295H0.807005C0.356944 12.0295 0 11.6726 0 11.2225V11.0828C0 10.8655 0.0775966 10.6638 0.23279 10.5086L1.31914 9.45329V6.02352C1.31914 3.94393 2.62276 2.19025 4.5782 1.56948C4.59372 1.56948 4.59372 1.55396 4.59372 1.53844V1.41428C4.59372 0.948704 4.81099 0.498644 5.19897 0.250335C6.25428 -0.432515 7.41823 0.390009 7.41823 1.41428V1.53844C9.38919 2.15921 10.7083 3.91289 10.7083 6.008V9.45329L11.7947 10.5241C11.9499 10.6793 12.0275 10.8811 12.0275 11.0983V11.238C12.043 11.6726 11.686 12.0295 11.236 12.0295Z" fill="#6E73F0"/>
</svg>
