<svg width="12" height="12" viewBox="0 0 12 12" fill="none" xmlns="http://www.w3.org/2000/svg">
<path d="M10.0868 8.84622C10.7949 7.92178 11.2285 6.76978 11.2285 5.51822C11.2285 2.47467 8.69952 0 5.607 0C2.51448 0 0 2.47467 0 5.51822C0 8.56178 2.51448 11.0364 5.607 11.0364C6.76308 11.0364 7.84691 10.6809 8.74287 10.0836C8.75732 10.0978 8.75733 10.0978 8.77178 10.112L10.4285 11.7298C10.6019 11.9004 10.8475 12 11.0787 12C11.31 12 11.5556 11.9147 11.729 11.7298C12.0903 11.3742 12.0903 10.8053 11.729 10.4498L10.0868 8.84622ZM5.607 9.23022C3.52605 9.23022 1.83528 7.56622 1.83528 5.51822C1.83528 3.47022 3.52605 1.80622 5.607 1.80622C7.68795 1.80622 9.37872 3.47022 9.37872 5.51822C9.37872 7.56622 7.68795 9.23022 5.607 9.23022Z" fill="#6E73F0"/>
</svg>
