<svg width="16" height="16" viewBox="0 0 16 16" fill="none" xmlns="http://www.w3.org/2000/svg">
<path fill-rule="evenodd" clip-rule="evenodd" d="M9.14118 1.14286C9.14118 0.511674 8.62951 0 7.99833 0C7.36714 0 6.85547 0.511674 6.85547 1.14286V6.85742L1.14286 6.85742C0.511674 6.85742 0 7.3691 0 8.00028C0 8.63146 0.511674 9.14314 1.14286 9.14314H6.85547V14.8571C6.85547 15.4883 7.36714 16 7.99833 16C8.62951 16 9.14118 15.4883 9.14118 14.8571V9.14314H14.8571C15.4883 9.14314 16 8.63146 16 8.00028C16 7.3691 15.4883 6.85742 14.8571 6.85742L9.14118 6.85742V1.14286Z" fill="#696889"/>
</svg>
