<svg width="26" height="26" viewBox="0 0 26 26" fill="none" xmlns="http://www.w3.org/2000/svg">
<path d="M16.2911 3.44996L16.4323 3.56987L16.6175 3.5688L20.9346 3.54386L21.6597 7.7997L21.6909 7.98233L21.8335 8.10059L25.1566 10.8565L22.9764 14.5827L22.8829 14.7426L22.9161 14.9249L23.6903 19.1721L19.625 20.6252L19.4506 20.6875L19.3589 20.8485L17.2219 24.5997L13.1737 23.0997L13 23.0353L12.8263 23.0997L8.77807 24.5997L6.64111 20.8485L6.54941 20.6875L6.37496 20.6252L2.30969 19.1721L3.0839 14.9249L3.11712 14.7426L3.02356 14.5827L0.843428 10.8565L4.16654 8.10059L4.30914 7.98233L4.34026 7.7997L5.06536 3.54386L9.38245 3.5688L9.56771 3.56987L9.70894 3.44996L13 0.655892L16.2911 3.44996Z" fill="#6E73F0" stroke="white"/>
<path fill-rule="evenodd" clip-rule="evenodd" d="M16.7742 8.82422L18.227 10.277L11.9738 16.5301L11.9569 16.5132L11.7798 16.6903L8.07593 12.9864L9.52872 11.5336L11.7967 13.8016L16.7742 8.82422Z" fill="white"/>
</svg>
