<svg width="12" height="12" viewBox="0 0 12 12" fill="none" xmlns="http://www.w3.org/2000/svg">
<path fill-rule="evenodd" clip-rule="evenodd" d="M0.338464 0.335119C-0.108361 0.781944 -0.108361 1.50639 0.338464 1.95322L4.38291 5.99766L0.335119 10.0455C-0.111706 10.4923 -0.111707 11.2167 0.335119 11.6636C0.781945 12.1104 1.50639 12.1104 1.95322 11.6636L6.00101 7.61576L10.047 11.6618C10.4939 12.1086 11.2183 12.1086 11.6651 11.6618C12.112 11.215 12.112 10.4905 11.6651 10.0437L7.61911 5.99766L11.6618 1.95497C12.1086 1.50814 12.1086 0.783696 11.6618 0.336871C11.215 -0.109955 10.4905 -0.109954 10.0437 0.336871L6.00101 4.37957L1.95656 0.335119C1.50974 -0.111706 0.785289 -0.111706 0.338464 0.335119Z" fill="#9FA4AF"/>
</svg>
