<svg width="40" height="40" viewBox="0 0 40 40" fill="none" xmlns="http://www.w3.org/2000/svg">
<rect x="0.5" y="0.5" width="39" height="39" rx="3.5" stroke="#E8EBF1"/>
<path d="M19.6836 25.5883C19.2578 25.4592 18.9868 25.0463 18.9868 24.6076V24.2722C18.9868 24.2722 18.9868 24.2593 18.9997 24.2593H21.0383V24.6206C21.0254 25.2915 20.3803 25.8076 19.6836 25.5883Z" fill="#9FA4AF"/>
<path d="M24.3416 24.0013H15.6709C15.2968 24.0013 15 23.7045 15 23.3303V23.2142C15 23.0336 15.0645 22.8658 15.1935 22.7368L16.0967 21.8594V19.0079C16.0967 17.279 17.1806 15.821 18.8063 15.3049C18.8192 15.3049 18.8192 15.292 18.8192 15.2791V15.1758C18.8192 14.7887 18.9998 14.4146 19.3224 14.2081C20.1998 13.6404 21.1675 14.3243 21.1675 15.1758V15.2791C22.8061 15.7952 23.9029 17.2532 23.9029 18.995V21.8594L24.8061 22.7497C24.9351 22.8787 24.9996 23.0465 24.9996 23.2271V23.3432C25.0125 23.7045 24.7157 24.0013 24.3416 24.0013Z" fill="#9FA4AF"/>
</svg>
