<svg width="12" height="15" viewBox="0 0 12 15" fill="none" xmlns="http://www.w3.org/2000/svg">
<path fill-rule="evenodd" clip-rule="evenodd" d="M3.7149 7.80518H7.79255C9.32715 7.80518 10.5987 8.85167 10.8617 10.3342L11.5194 13.5609C11.651 14.3022 11.081 14.9999 10.3356 14.9999H1.2157C0.426476 14.9999 -0.143518 14.3022 0.0318649 13.5609L0.645704 10.3342C0.952624 8.85167 2.22415 7.80518 3.7149 7.80518Z" fill="#F5F7FA"/>
<path fill-rule="evenodd" clip-rule="evenodd" d="M5.77361 0C7.52744 0 8.97435 1.43894 8.97435 3.1831C8.97435 4.92726 7.52744 6.3662 5.77361 6.3662C3.97594 6.3662 2.57288 4.92726 2.57288 3.1831C2.57288 1.43894 3.97594 0 5.77361 0Z" fill="#F5F7FA"/>
</svg>
